<?xml version="1.0" encoding="utf-8"?>
<svg viewBox="0 0 500 500" style="enable-background:new 0 0 500 500;" xmlns="http://www.w3.org/2000/svg">
  <defs>
    <style type="text/css">
	.st0{fill:none;stroke:#7B9E87;}
</style>
  </defs>
  <g id="Calque_1"/>
  <g id="Calque_2" transform="matrix(1.123251, 0, 0, 1.117592, -35.411567, -24.612548)" style="">
    <g>
      <g>
        <path class="st0" d="M256.4,140.5c-0.2,0.2-0.5,0.4-0.7,0.6c0.1-0.2,0.2-0.4,0.3-0.5C256.2,140.6,256.3,140.6,256.4,140.5z"/>
        <path class="st0" d="M285.9,216.2c0,0-1.2-0.4-3.4-1.1L246,155.4c-4.1-2-16.2-1-22.3-0.4c2.9-0.8,5.3-2.2,7-4.3 c7.3,2.9,12.1-1.2,15.2-2.4c0.1,0,0.2-0.1,0.3-0.1c0.2,0,0.3-0.1,0.5-0.1c2.1-0.4,6-2.3,9-6.9c0.2-0.2,0.4-0.4,0.7-0.6 c2.6-0.6,6.2-1.9,10.8-4.7c-13.6,9-14.7,16.8-14.7,16.8l32.7,59.6C285.4,213.6,285.6,214.9,285.9,216.2z"/>
        <path class="st0" d="M270,134.1c-1,0.7-1.9,1.2-2.8,1.8c-4.6,2.8-8.2,4.1-10.8,4.7c-0.1,0-0.2,0.1-0.3,0.1 c4.1-6.8,6.2-19-1.5-40.1c-7.7-21.1-18.9-34.8-32.4-45.6c-1.6-12-3.1-22.4-4.8-29c-0.1-0.5,0.4-0.9,0.8-0.5 c9.9,9.7,49.7,49.3,57.9,63.1C285.6,104.4,283.7,124.9,270,134.1z"/>
        <path class="st0" d="M230.8,150.7c-1.7,2.1-4.2,3.4-7,4.3c-8.5,2.5-20.4,0.4-25.4-2.2c-21.5-11.5-25.7-59.7-31.4-99 c0,0,14,6.1,25.9,16.7c3.1,20.5,8.8,45,18.8,60.6c7.7,12,13.9,17.5,19,19.6C230.6,150.6,230.7,150.6,230.8,150.7z"/>
        <path class="st0" d="M256.1,140.6c-0.1,0.2-0.2,0.4-0.3,0.5c-3,4.6-6.9,6.5-9,6.9c-0.1,0-0.3,0.1-0.5,0.1c-0.1,0-0.2,0.1-0.3,0.1 c-3.1,1.2-7.9,5.3-15.2,2.4c-0.1,0-0.1-0.1-0.2-0.1c-5-2.1-11.3-7.5-19-19.6c-10-15.7-15.7-40.1-18.8-60.6 C189.7,50,189,33.5,189,33.5c12,6.9,23.2,13.4,33.1,21.4c13.5,10.9,24.7,24.5,32.4,45.6C262.3,121.6,260.2,133.8,256.1,140.6z"/>
        <path class="st0" d="M291.6,198.5c-8.5,12.5-1.2,24.6-0.9,25.1l-4.3-4.9c-42.8,25.2-94.4,4.9-94.4,4.9 c27.1-25.2,77.1-12.5,90.5-8.5c2.2,0.7,3.4,1.1,3.4,1.1c-0.2-1.3-0.5-2.6-0.7-3.9c-9.1-58.4,38.3-85.7,38.3-85.7 C322.2,171.8,300.2,185.7,291.6,198.5z"/>
      </g>
    </g>
    <g>
      <g>
        <path class="st0" d="M129.9,170.4c-0.9-0.8-3-2.5-5.9-4.4l-21.6-41c2-0.9,3.8-1.8,5.4-2.7l15.3,33.2c1.7,6.3,4.6,10.3,4.6,10.3 l0-0.1L129.9,170.4z"/>
        <path class="st0" d="M134.1,179.5l-2.2,1.6l-3.6-6.9c0.8-0.8,1.5-1.8,2.1-2.9L134.1,179.5z"/>
        <path class="st0" d="M148.3,110.6l-20.6,55l0,0.1c0,0-3-4-4.6-10.3C120.1,144.5,121.1,126.5,148.3,110.6z"/>
        <path class="st0" d="M130.3,171.3c-0.6,1.1-1.2,2-2.1,2.9c-14.1,14.3-64.9-8.4-64.9-8.4c28.4-15.4,50.3-6.4,60.6,0.2 c3,1.9,5,3.6,5.9,4.4L130.3,171.3z"/>
        <path class="st0" d="M130.3,171.3l-0.4-0.9"/>
        <path class="st0" d="M121.9,108.7c-2.5,8.8-11.3,11.9-14.2,13.5c-1.6,0.9-3.4,1.9-5.4,2.7c-5.4,2.4-16,5.2-25.4,1.9 C57.1,119.9,49.9,66,49.9,66l18.8,6.9l-1.2-21.8l19.9,12l1.4-20.7C126.1,80.3,125.5,96.3,121.9,108.7z"/>
      </g>
    </g>
    <path class="st0" d="M443.8,113.4c-6.2,11.3-11.2,17.2-15.3,20.1c-2.8,2-5.2,2.5-7.1,2.3c-1.9-0.1-3.3-0.9-4.4-1.6 c-0.4-0.2-0.8-0.6-1.3-1.1l0,0c-1.2-1.3-2.8-3.6-4.1-6.6v1.3c0,0-26-0.2-18.8-27c7.2-26.7,29.8-53.6,29.8-53.6l1.9,22l22.8-24.4 c0,0,3.8,14.2,4.1,31.4C451.5,88.5,449.8,102.2,443.8,113.4z"/>
    <path class="st0" d="M473.8,59.3c0,0-9.3,60.5-13.4,68.2c-4.4,8.2-17.1,20.5-31.9,6c4.1-2.9,9.2-8.8,15.3-20.1 c6.1-11.1,7.7-24.9,7.5-37.1C458.5,68.9,466.4,62.8,473.8,59.3z"/>
    <path class="st0" d="M458.8,156.5l-59.2,33.1c0,0-0.2-11.1,8.3-20.6C415.6,160.5,430.4,153.3,458.8,156.5z"/>
    <path class="st0" d="M393.3,181.8L393.3,181.8L393.3,181.8c-0.5,3.9-1.7,6.1-1.7,6.1c-0.5,0.4-1,0.8-1.5,1v0 c-15,6.8-48.2-62.5-48.7-63.5C390.5,148.2,394.6,171.2,393.3,181.8z"/>
    <path class="st0" d="M408,169.1c-8.6,9.5-8.3,20.6-8.3,20.6c-4.6,4.1-9.8-0.2-9.8-0.2l0.2-0.5v0c0.5-0.2,1-0.6,1.5-1 c0,0,1.2-2.2,1.7-6.1v0l0,0l21.9-48.9l0.4,0.2l0,0c0.5,0.5,0.9,0.9,1.3,1.1c1.1,0.7,2.5,1.4,4.4,1.6l0.1,0L408,169.1z"/>
    <path class="st0" d="M78.1,251.8c0,0,17.7,12.7,20.7,18.5c2.1,4-20.1,88.2,9.5,99.5C108.4,369.8,44.8,396.7,78.1,251.8z"/>
    <path class="st0" d="M112.6,229.9c0,0-33.1,124,0,138.1c33.1,14,35.5-23.1,35.5-23.1S157.2,318.6,112.6,229.9z"/>
    <path class="st0" d="M154.2,237.5c0,0-12.7,25.5-15.8,31.3c-2.1,4,34.4,74.1,3.7,98.9C142.1,367.7,212.4,376.5,154.2,237.5z"/>
    <path class="st0" d="M124.1,375.1c0,0,3.7,0.5,9-1.3l2.9,67.8c0,0.8-0.6,1.5-1.5,1.5h0c-0.8,0-1.5-0.6-1.6-1.4L124.1,375.1z"/>
    <path class="st0" d="M133.8,447.2c0,0,5.6,6.7,7.7-30.5c2.1-37.2,55.8-53,55.8-53s-60.6,87-60.1,89.5c0.5,2.5,3.1,10.3,3.1,10.3 l-4.2,2.6l-2.3-11.4c0,0-77.5-1.4-98.8-52.5C35,402.2,65.6,388.9,133.8,447.2z"/>
    <path class="st0" d="M436.1,282.4c-15.5,117.4-73.8,87.9-83,82.5c-0.8-0.5-1.2-0.8-1.2-0.8s-0.3-0.3-1.1-1.1c-1-1-2.9-2.6-6.2-5.2 c-0.5-0.4-1-0.7-1.5-1.1c-1-0.8-2.1-1.6-3.3-2.5c-42.5-46.9,31-102.7,31-102.7l0.1,30.4l33.5-18.1l-0.4,35.6L436.1,282.4z"/>
    <path class="st0" d="M396,433.4c0,0-87.7,10-92.8,6.4l-5,15.2h-2.9l3.9-16.2c0,0-22.1,22-50.7-113.9c0,0,46.4,10.1,55.1,102 c0.1,1.5,0.3,3,0.4,4.6c0,0,1.3-0.8,3.8-2v0C319.1,424,354.3,410.8,396,433.4z"/>
    <path class="st0" d="M353.1,364.9l-45.3,64.6v0c-2.5,1.2-3.8,2-3.8,2c-0.1-1.6-0.3-3.1-0.4-4.6l40.9-69.1c3.3,2.6,5.2,4.2,6.2,5.2 c0.8,0.8,1.1,1.1,1.1,1.1S352.3,364.4,353.1,364.9z"/>
  </g>
</svg>