<svg xmlns="http://www.w3.org/2000/svg" viewBox="0 0 191.5 16.78"><title>Fichier 9</title><g id="Calque_2" data-name="Calque 2"><g id="OBJECTS"><path d="M12.24,6.77A6.63,6.63,0,0,0,8.49,5,4.65,4.65,0,0,0,5.3,6.28,3.48,3.48,0,0,0,4.05,8.86a3.29,3.29,0,0,0,1.32,2.23A6.89,6.89,0,0,0,7.91,12.3a8.2,8.2,0,0,0,2.24.25c1.26-.06,2-.37,2.26-.09s-.21,1.14-1.77,1.9A8.19,8.19,0,0,1,3.56,14,7.57,7.57,0,0,1,1.48,12.3,6.31,6.31,0,0,1,.11,9.47a7.39,7.39,0,0,1,2-6.28A8.92,8.92,0,0,1,8.57.3,10.79,10.79,0,0,1,15.28,3c1.75,1.43,3,2.9,4.24,4a30.63,30.63,0,0,0,4,3,30.32,30.32,0,0,0,7.8,3.64,26,26,0,0,0,5.9,1.1,15.85,15.85,0,0,0,1.68.06l.59,0-.56.19a15.47,15.47,0,0,1-1.65.48,21.15,21.15,0,0,1-6.38.53,25.7,25.7,0,0,1-9.35-2.47,27,27,0,0,1-5-3C14.91,9.3,13.57,7.84,12.24,6.77Z"/><path d="M48.45,10.19a6.49,6.49,0,0,0,3.65,1.87,4.66,4.66,0,0,0,3.25-1.16,3.56,3.56,0,0,0,1.37-2.53A3.19,3.19,0,0,0,55.51,6.1,6.9,6.9,0,0,0,53,4.8a8.08,8.08,0,0,0-2.23-.33c-1.26,0-2,.29-2.26,0s.26-1.12,1.84-1.83a8.2,8.2,0,0,1,7.06.66,7.24,7.24,0,0,1,2,1.76A6.33,6.33,0,0,1,60.69,8a7.42,7.42,0,0,1-2.28,6.17,8.94,8.94,0,0,1-6.53,2.65,10.66,10.66,0,0,1-6.62-3c-1.69-1.5-2.86-3-4.06-4.18a30.23,30.23,0,0,0-3.82-3.18,29.66,29.66,0,0,0-7.63-3.95,25.59,25.59,0,0,0-5.84-1.33c-.72-.1-1.28-.1-1.67-.13l-.59,0,.56-.17A14.38,14.38,0,0,1,23.87.4,21.14,21.14,0,0,1,30.26.12,25.4,25.4,0,0,1,39.49,3a26.23,26.23,0,0,1,4.82,3.26C45.9,7.56,47.17,9.06,48.45,10.19Z"/><path d="M77.61,6.77A6.64,6.64,0,0,0,73.87,5a4.69,4.69,0,0,0-3.2,1.27,3.47,3.47,0,0,0-1.24,2.58,3.22,3.22,0,0,0,1.32,2.23,6.84,6.84,0,0,0,2.53,1.21,8.27,8.27,0,0,0,2.25.25c1.26-.06,2-.37,2.25-.09s-.21,1.14-1.76,1.9A8.21,8.21,0,0,1,68.93,14a7.53,7.53,0,0,1-2.07-1.67,6.32,6.32,0,0,1-1.38-2.83,7.36,7.36,0,0,1,2-6.28A8.89,8.89,0,0,1,73.94.3,10.76,10.76,0,0,1,80.65,3c1.75,1.43,3,2.9,4.24,4a32.06,32.06,0,0,0,4,3,30.32,30.32,0,0,0,7.8,3.64,26,26,0,0,0,5.9,1.1,15.92,15.92,0,0,0,1.68.06l.6,0-.57.19a15.15,15.15,0,0,1-1.64.48,21.18,21.18,0,0,1-6.38.53,25.7,25.7,0,0,1-9.35-2.47,26.31,26.31,0,0,1-5-3C80.29,9.3,79,7.84,77.61,6.77Z"/><path d="M113.83,10.19a6.46,6.46,0,0,0,3.65,1.87,4.66,4.66,0,0,0,3.25-1.16,3.51,3.51,0,0,0,1.36-2.53,3.16,3.16,0,0,0-1.21-2.27,6.94,6.94,0,0,0-2.47-1.3,8.08,8.08,0,0,0-2.23-.33c-1.27,0-2.05.29-2.26,0s.26-1.12,1.83-1.83a8.2,8.2,0,0,1,7.06.66,7.28,7.28,0,0,1,2,1.76A6.22,6.22,0,0,1,126.06,8a7.39,7.39,0,0,1-2.28,6.17,8.9,8.9,0,0,1-6.52,2.65,10.64,10.64,0,0,1-6.62-3c-1.69-1.5-2.87-3-4.06-4.18a31,31,0,0,0-3.82-3.18,29.82,29.82,0,0,0-7.63-3.95,25.82,25.82,0,0,0-5.84-1.33c-.73-.1-1.29-.1-1.68-.13L87,1l.57-.17A13.36,13.36,0,0,1,89.25.4,21.14,21.14,0,0,1,95.64.12,25.45,25.45,0,0,1,104.87,3a26.16,26.16,0,0,1,4.81,3.26C111.27,7.56,112.54,9.06,113.83,10.19Z"/><path d="M143,6.77A6.69,6.69,0,0,0,139.24,5a4.65,4.65,0,0,0-3.19,1.27,3.48,3.48,0,0,0-1.25,2.58,3.25,3.25,0,0,0,1.32,2.23,6.92,6.92,0,0,0,2.53,1.21,8.31,8.31,0,0,0,2.25.25c1.26-.06,2-.37,2.26-.09s-.22,1.14-1.77,1.9a8.19,8.19,0,0,1-7.08-.39,7.57,7.57,0,0,1-2.08-1.67,6.31,6.31,0,0,1-1.37-2.83,7.39,7.39,0,0,1,2-6.28A8.92,8.92,0,0,1,139.32.3,10.79,10.79,0,0,1,146,3c1.74,1.43,3,2.9,4.24,4a30.63,30.63,0,0,0,4,3,30.32,30.32,0,0,0,7.8,3.64,25.92,25.92,0,0,0,5.9,1.1,15.85,15.85,0,0,0,1.68.06l.59,0-.56.19a15.47,15.47,0,0,1-1.65.48,21.18,21.18,0,0,1-6.38.53,25.7,25.7,0,0,1-9.35-2.47,27,27,0,0,1-4.95-3C145.66,9.3,144.32,7.84,143,6.77Z"/><path d="M179.2,10.19a6.49,6.49,0,0,0,3.65,1.87,4.66,4.66,0,0,0,3.25-1.16,3.56,3.56,0,0,0,1.37-2.53,3.23,3.23,0,0,0-1.21-2.27,6.9,6.9,0,0,0-2.48-1.3,8.08,8.08,0,0,0-2.23-.33c-1.26,0-2,.29-2.26,0s.26-1.12,1.84-1.83a8.2,8.2,0,0,1,7.06.66,7.24,7.24,0,0,1,2,1.76A6.33,6.33,0,0,1,191.44,8a7.45,7.45,0,0,1-2.28,6.17,8.94,8.94,0,0,1-6.53,2.65,10.64,10.64,0,0,1-6.62-3c-1.69-1.5-2.86-3-4.06-4.18a30.23,30.23,0,0,0-3.82-3.18,29.66,29.66,0,0,0-7.63-3.95,25.59,25.59,0,0,0-5.84-1.33c-.72-.1-1.29-.1-1.67-.13l-.59,0L153,.82A14.38,14.38,0,0,1,154.62.4,21.14,21.14,0,0,1,161,.12,25.4,25.4,0,0,1,170.24,3a26.57,26.57,0,0,1,4.82,3.26C176.65,7.56,177.92,9.06,179.2,10.19Z"/></g></g></svg>