<svg xmlns="http://www.w3.org/2000/svg" viewBox="0 0 185 7.55"><defs><style>.cls-1{fill:#0f091c;}</style></defs><title>Fichier 6</title><g id="Calque_2" data-name="Calque 2"><g id="OBJECTS"><path class="cls-1" d="M87.85,3.24c-1.68,0-3.16.23-3.3.57s1.11.64,2.8.67,3.17-.23,3.31-.57S89.54,3.27,87.85,3.24Z"/><path class="cls-1" d="M80.19,2.91c-2.25,0-4.22.3-4.41.75s1.49.86,3.74.89,4.22-.3,4.41-.75S82.44,3,80.19,2.91Z"/><path class="cls-1" d="M70,2.46c-3,0-5.63.4-5.88,1s2,1.13,5,1.18,5.63-.4,5.88-1S73,2.51,70,2.46Z"/><path class="cls-1" d="M56.36,1.86c-4-.06-7.51.54-7.84,1.35s2.64,1.51,6.64,1.58S62.67,4.26,63,3.45,60.36,1.93,56.36,1.86Z"/><path class="cls-1" d="M38.2,1.07c-5.33-.09-10,.71-10.46,1.79s3.53,2,8.86,2.11,10-.71,10.45-1.79S43.53,1.16,38.2,1.07Z"/><path class="cls-1" d="M14,0C6.88-.11.63,1,0,2.39s4.7,2.7,11.81,2.82,13.35-1,13.94-2.39S21.09.13,14,0Z"/><path class="cls-1" d="M97.15,4.31c1.68,0,3.16-.23,3.3-.57s-1.11-.64-2.8-.67-3.17.23-3.31.57S95.46,4.28,97.15,4.31Z"/><path class="cls-1" d="M104.81,4.64c2.25,0,4.22-.3,4.41-.75S107.73,3,105.48,3s-4.22.3-4.41.75S102.56,4.61,104.81,4.64Z"/><path class="cls-1" d="M115,5.09c3,0,5.63-.4,5.88-1s-2-1.14-5-1.19-5.63.4-5.88,1S112,5,115,5.09Z"/><path class="cls-1" d="M128.64,5.69c4,.06,7.51-.54,7.84-1.34s-2.64-1.52-6.64-1.59S122.33,3.3,122,4.1,124.64,5.62,128.64,5.69Z"/><path class="cls-1" d="M146.8,6.48c5.33.09,10-.71,10.46-1.79s-3.53-2-8.86-2.11-10,.71-10.45,1.79S141.47,6.39,146.8,6.48Z"/><path class="cls-1" d="M171,7.54c7.11.12,13.36-1,13.94-2.38s-4.69-2.7-11.8-2.82-13.35,1-13.94,2.39S163.9,7.42,171,7.54Z"/></g></g></svg>