<svg xmlns="http://www.w3.org/2000/svg" viewBox="0 0 190.5 52.37"><defs><style>.cls-1{fill:#1b1527;}</style></defs><title>Fichier 10</title><g id="Calque_2" data-name="Calque 2"><g id="OBJECTS"><path class="cls-1" d="M18.85,21.56a35.76,35.76,0,0,1,15.41.29,62,62,0,0,1,10.18,3.29c3.56,1.46,7.25,3.24,11.17,5.12l14.56,6.9a47,47,0,0,0,7.28,2.93,15.77,15.77,0,0,0,7.39.46,9.34,9.34,0,0,0,6-3.56A7.58,7.58,0,0,0,92,30.55a5.24,5.24,0,0,0-1.76-2.63,6.12,6.12,0,0,0-2.86-1.16,5,5,0,0,0-5,2.21,5.08,5.08,0,0,1,5-2.4,6.39,6.39,0,0,1,3.06,1.08,5.75,5.75,0,0,1,2,2.78,8.38,8.38,0,0,1-1,7.19A10.72,10.72,0,0,1,84.86,42a18.32,18.32,0,0,1-8.33-.08,61.33,61.33,0,0,1-8-2.56L53,33.68C45.93,31.1,39.8,28.9,34.56,27.94A34.81,34.81,0,0,0,22,27.58a26.81,26.81,0,0,0-5.46,1.54,18.78,18.78,0,0,0-8.23,6.23,21.25,21.25,0,0,0-3.59,8c-1.13,5.08-.27,8.62-1.19,9-.39.18-1.18-.47-2-2A16.51,16.51,0,0,1,0,43.09,21.55,21.55,0,0,1,3,32.26,21.3,21.3,0,0,1,7.44,27a23.87,23.87,0,0,1,6.24-3.84A26.87,26.87,0,0,1,18.85,21.56Z"/><path class="cls-1" d="M77,31a15,15,0,0,0,3,2.44,5,5,0,0,0,4,.11,4.66,4.66,0,0,0,2.69-2.68,7.34,7.34,0,0,1-1.91,3.84,9.77,9.77,0,0,1-5.11,2.88,8.78,8.78,0,0,1-6.48-1.29,6.67,6.67,0,0,1-1-.76,5.46,5.46,0,0,1-1.9-3.8,2.5,2.5,0,0,1,1.3-2.46,3.59,3.59,0,0,1,2.66,0A6.72,6.72,0,0,1,76.6,30.6Z"/><path class="cls-1" d="M75.88,20.43a17.74,17.74,0,0,0-.09,2.64,4.12,4.12,0,0,0,1.55,2.64,4.69,4.69,0,0,0,2.68,1,11.27,11.27,0,0,1-3.2.26,10,10,0,0,1-4.27-1.33,6.71,6.71,0,0,1-3.09-4.19,4.83,4.83,0,0,1-.17-1,3.94,3.94,0,0,1,1.39-3.3,2.36,2.36,0,0,1,2.61-.25,5.84,5.84,0,0,1,1.84,1.65,2.88,2.88,0,0,1,.76,1.57A2.81,2.81,0,0,1,75.88,20.43Z"/><path class="cls-1" d="M85.35,16.7c-.42.43-1.29,1-2.43,2A3.57,3.57,0,0,0,82,21.65,2.91,2.91,0,0,0,83.7,24a4.9,4.9,0,0,1-3-1.74,8.11,8.11,0,0,1-1.87-4.49,7.85,7.85,0,0,1,1.4-5.1,4.06,4.06,0,0,1,.57-.74c1.76-1.83,4-1.64,5.18-.27a3.73,3.73,0,0,1-.34,4.76Z"/><path class="cls-1" d="M66.9,36.14c-7.58-4.74-14.17-8.81-19.76-11.52a67.59,67.59,0,0,0-13.16-5l-.18-.05-1.87-.43-1.36-.26c-.73-.16-1.12-.21-1.12-.21a45.62,45.62,0,0,0-15.84,0c-4.1.7-6.68,1.76-7.23,1.17s1.25-2.59,5.34-4.47a31.88,31.88,0,0,1,17.4-2.05,45.42,45.42,0,0,1,15.26,5.17,74.74,74.74,0,0,1,11.89,8.07c3.29,2.68,5.91,5.1,7.75,6.82Z"/><path class="cls-1" d="M69.47,34.83a23.84,23.84,0,0,1-14.4-17.55l0-.13a19.09,19.09,0,0,1-.29-2.27,6.54,6.54,0,0,1,0-.78A20.58,20.58,0,0,1,57.15,3.41C58.56.9,60.1-.24,60.73,0c1.36.63-.95,6.24-.79,13.3a30.34,30.34,0,0,0,1.18,8.14,28.94,28.94,0,0,0,6.69,11.71c.51.53.92.94,1.21,1.21Z"/><path class="cls-1" d="M171.65,21.56a35.76,35.76,0,0,0-15.41.29,62,62,0,0,0-10.18,3.29c-3.56,1.46-7.25,3.24-11.18,5.12l-14.55,6.9a47,47,0,0,1-7.28,2.93,15.77,15.77,0,0,1-7.39.46,9.34,9.34,0,0,1-6-3.56,7.58,7.58,0,0,1-1.21-6.44,5.18,5.18,0,0,1,1.76-2.63,6.12,6.12,0,0,1,2.86-1.16,5,5,0,0,1,5,2.21,5.09,5.09,0,0,0-5-2.4A6.35,6.35,0,0,0,100,27.65a5.69,5.69,0,0,0-2,2.78,8.41,8.41,0,0,0,1,7.19,10.78,10.78,0,0,0,6.6,4.36A18.32,18.32,0,0,0,114,41.9a61,61,0,0,0,8-2.56l15.52-5.66c7.1-2.58,13.23-4.78,18.47-5.74a34.81,34.81,0,0,1,12.6-.36A27,27,0,0,1,174,29.12a18.75,18.75,0,0,1,8.22,6.23,21.44,21.44,0,0,1,3.6,8c1.13,5.08.27,8.62,1.19,9,.39.18,1.18-.47,2-2a16.5,16.5,0,0,0,1.54-7.23,21.55,21.55,0,0,0-3-10.83A21.3,21.3,0,0,0,183.06,27a23.87,23.87,0,0,0-6.24-3.84A26.87,26.87,0,0,0,171.65,21.56Z"/><path class="cls-1" d="M113.55,31a15,15,0,0,1-3,2.44,5,5,0,0,1-4,.11,4.64,4.64,0,0,1-2.68-2.68,7.39,7.39,0,0,0,1.9,3.84,9.84,9.84,0,0,0,5.12,2.88,8.79,8.79,0,0,0,6.48-1.29,6.67,6.67,0,0,0,1-.76,5.51,5.51,0,0,0,1.9-3.8,2.49,2.49,0,0,0-1.31-2.46,3.57,3.57,0,0,0-2.65,0,6.72,6.72,0,0,0-2.37,1.38Z"/><path class="cls-1" d="M114.62,20.43a17.74,17.74,0,0,1,.09,2.64,4.12,4.12,0,0,1-1.55,2.64,4.69,4.69,0,0,1-2.68,1,11.2,11.2,0,0,0,3.19.26A10,10,0,0,0,118,25.68,6.65,6.65,0,0,0,121,21.49a3.82,3.82,0,0,0,.17-1,3.91,3.91,0,0,0-1.38-3.3,2.36,2.36,0,0,0-2.61-.25,5.88,5.88,0,0,0-1.85,1.65,3,3,0,0,0-.76,1.57A2.83,2.83,0,0,0,114.62,20.43Z"/><path class="cls-1" d="M105.15,16.7c.41.43,1.29,1,2.43,2a3.57,3.57,0,0,1,.91,2.94A2.91,2.91,0,0,1,106.8,24a4.9,4.9,0,0,0,3-1.74,8.11,8.11,0,0,0,1.87-4.49,7.85,7.85,0,0,0-1.4-5.1,4.06,4.06,0,0,0-.57-.74c-1.76-1.83-4-1.64-5.18-.27a3.73,3.73,0,0,0,.34,4.76Z"/><path class="cls-1" d="M123.6,36.14c7.58-4.74,14.16-8.81,19.76-11.52a67.35,67.35,0,0,1,13.16-5l.18-.05,1.87-.43,1.36-.26c.73-.16,1.11-.21,1.11-.21a45.67,45.67,0,0,1,15.85,0c4.1.7,6.68,1.76,7.22,1.17s-1.24-2.59-5.34-4.47a31.83,31.83,0,0,0-17.39-2.05,45.42,45.42,0,0,0-15.26,5.17,74.74,74.74,0,0,0-11.89,8.07c-3.29,2.68-5.91,5.1-7.75,6.82Z"/><path class="cls-1" d="M121,34.83a23.84,23.84,0,0,0,14.4-17.55l0-.13c.17-1,.25-1.75.29-2.27a6.54,6.54,0,0,0,0-.78,20.58,20.58,0,0,0-2.43-10.69C131.94.9,130.4-.24,129.77,0c-1.36.63.95,6.24.79,13.3a30.34,30.34,0,0,1-1.18,8.14,29,29,0,0,1-3.14,7.07,28.53,28.53,0,0,1-3.55,4.64c-.51.53-.92.94-1.21,1.21Z"/></g></g></svg>