<svg xmlns="http://www.w3.org/2000/svg" viewBox="0 0 200.1 35.75"><defs><style>.cls-1{fill:#0d0d0d;}</style></defs><title>Fichier 8</title><g id="Calque_2" data-name="Calque 2"><g id="OBJECTS"><path class="cls-1" d="M95.49,34.69c-25.35,1-44.13,1.08-53.64,1.06h-.28c-4.38,0-6.71-.05-6.71-.05C16.07,35.44.47,34.42,0,33.42s14.4-1.61,33.19-1.36C62.27,32.45,95.49,34.69,95.49,34.69Z"/><path class="cls-1" d="M96,34.84c-6.29.12-12.19.18-17.64-.07A116.29,116.29,0,0,1,63.4,33.2a76,76,0,0,1-11.83-3.08,62.25,62.25,0,0,1-8.37-3.64l-.27-.13a32.21,32.21,0,0,1-4.55-2.88c-1-.77-1.49-1.24-1.49-1.24a17.42,17.42,0,0,1-4.74-6.82,14.59,14.59,0,0,1-.35-8.55,11.84,11.84,0,0,1,1.63-3.65A7.35,7.35,0,0,1,36.14.73,6.61,6.61,0,0,1,39.28,0a7,7,0,0,1,2.81.74,11.62,11.62,0,0,1,3.77,3.2,18.68,18.68,0,0,1,2.06,3.18c1,1.89,1.29,3.12,1.18,3.35s-.7-.5-1.75-1.9c-.53-.69-1.2-1.53-2-2.42a13.62,13.62,0,0,0-3-2.51,6.09,6.09,0,0,0-1.93-.72,5.77,5.77,0,0,0-1-.09,4.66,4.66,0,0,0-1,.2A5.15,5.15,0,0,0,35,6.37a11,11,0,0,0-.52,6.09l.19.77.25.74.32.76.38.75a14.49,14.49,0,0,0,2,2.73,30.31,30.31,0,0,0,8.92,6.17A77.19,77.19,0,0,0,56.6,28.56,111.51,111.51,0,0,0,76,32.84c5.86.79,10.88,1.22,14.41,1.53Z"/><path class="cls-1" d="M60.62,32.79a60.44,60.44,0,0,1-13.67-2,52.33,52.33,0,0,1-8.58-2.68L38.25,28c-.89-.38-1.56-.72-2-1l-.68-.38a22.6,22.6,0,0,1-4.93-3.76,19.27,19.27,0,0,1-3.23-4.34c-1.53-2.84-1.7-5-1.36-5.28s1.18,1.24,2.79,3.28a27.77,27.77,0,0,0,7.49,6.52A56.74,56.74,0,0,0,44.57,27l7.93,3.11A69.36,69.36,0,0,0,60.62,32.79Z"/><path class="cls-1" d="M64.49,33.9c-6-.67-11.26-1-15.54-1.1s-7.67-.22-10-.48l-.13,0c-2.12-.23-3.25-.48-3.25-.48a28.86,28.86,0,0,1-6.35-1.94,21.82,21.82,0,0,1-4.87-2.94c-2.62-2.12-3.73-4.17-3.53-4.58S22.51,23,25,24.41a36.86,36.86,0,0,0,10.36,3.71c3.29.69,6.8,1.09,10.21,1.53s6.7,1,9.5,1.63,5.17,1.29,6.83,1.79S64.49,33.9,64.49,33.9Z"/><path class="cls-1" d="M104.6,34.69c25.36,1,44.14,1.08,53.65,1.06h.28c4.37,0,6.71-.05,6.71-.05,18.79-.25,34.39-1.27,34.85-2.27s-14.41-1.61-33.19-1.36C137.82,32.45,104.6,34.69,104.6,34.69Z"/><path class="cls-1" d="M104.11,34.84c6.3.12,12.19.18,17.64-.07a116.1,116.1,0,0,0,14.94-1.57,75.66,75.66,0,0,0,11.83-3.08,62.44,62.44,0,0,0,8.38-3.64l.26-.13a32.42,32.42,0,0,0,4.56-2.88,18.18,18.18,0,0,0,1.48-1.24,17.22,17.22,0,0,0,4.74-6.82,14.51,14.51,0,0,0,.35-8.55,11.82,11.82,0,0,0-1.62-3.65A7.42,7.42,0,0,0,164,.73,6.61,6.61,0,0,0,160.82,0,7,7,0,0,0,158,.74a11.47,11.47,0,0,0-3.76,3.2,19.44,19.44,0,0,0-2.07,3.18c-1,1.89-1.29,3.12-1.17,3.35s.69-.5,1.75-1.9c.53-.69,1.19-1.53,2-2.42a13.46,13.46,0,0,1,3-2.51,6,6,0,0,1,1.92-.72,5.89,5.89,0,0,1,1-.09,4.77,4.77,0,0,1,1,.2,5.19,5.19,0,0,1,3.29,3.34,11,11,0,0,1,.52,6.09l-.19.77-.25.74-.33.76-.38.75a13.65,13.65,0,0,1-2,2.73,30.18,30.18,0,0,1-8.92,6.17,76.63,76.63,0,0,1-10.08,4.18,111.22,111.22,0,0,1-19.36,4.28c-5.87.79-10.88,1.22-14.42,1.53Z"/><path class="cls-1" d="M139.48,32.79a60.62,60.62,0,0,0,13.67-2,52.33,52.33,0,0,0,8.58-2.68l.11-.05c.89-.38,1.57-.72,2-1l.68-.38a22.84,22.84,0,0,0,4.93-3.76,19.27,19.27,0,0,0,3.23-4.34c1.52-2.84,1.69-5,1.36-5.28s-1.18,1.24-2.8,3.28a27.71,27.71,0,0,1-7.48,6.52A57.35,57.35,0,0,1,155.52,27l-7.92,3.11A69.36,69.36,0,0,1,139.48,32.79Z"/><path class="cls-1" d="M135.6,33.9c6-.67,11.27-1,15.55-1.1s7.67-.22,10-.48l.14,0c2.11-.23,3.24-.48,3.24-.48a28.54,28.54,0,0,0,6.35-1.94,21.59,21.59,0,0,0,4.87-2.94c2.62-2.12,3.74-4.17,3.54-4.58s-1.66.68-4.15,2.05a36.79,36.79,0,0,1-10.35,3.71c-3.29.69-6.81,1.09-10.21,1.53s-6.7,1-9.51,1.63-5.17,1.29-6.82,1.79S135.6,33.9,135.6,33.9Z"/><path class="cls-1" d="M97.68,34.71a3.83,3.83,0,0,1-2.79-.64,3.66,3.66,0,0,1-1.37-2v0a3.88,3.88,0,0,1-.13-.91,3.24,3.24,0,0,1,1.34-2.86,1.15,1.15,0,0,1,1-.15.76.76,0,0,1,.47.52c.13.48,0,1,.11,1.41a7.59,7.59,0,0,1,.18,1,5.93,5.93,0,0,0,.06.84,4.82,4.82,0,0,0,.39,1.25c.18.42.38.81.53,1.09Z"/><path class="cls-1" d="M100.23,35a11.48,11.48,0,0,0,1-2.68,2.53,2.53,0,0,0,0-1.13h0a1.1,1.1,0,0,1,0-.23,2.21,2.21,0,0,1,.09-.92c.1-.33,0-.81.13-1.3a.87.87,0,0,1,.38-.59,1,1,0,0,1,.9,0,3,3,0,0,1,1.56,2.6,4.07,4.07,0,0,1-.16,1.5,4.15,4.15,0,0,1-.61,1.23,3.84,3.84,0,0,1-1.58,1.25,4.26,4.26,0,0,1-1.24.31A4.17,4.17,0,0,1,100.23,35Z"/><path class="cls-1" d="M99.34,35.07a31.63,31.63,0,0,1-2.16-8.47v0c-.07-.71-.07-1.09-.07-1.09-.1-3,.65-5.55,1.49-5.57s1.49,2.34,1.58,5.28a48.56,48.56,0,0,1-.4,6.62C99.56,33.71,99.34,35.07,99.34,35.07Z"/></g></g></svg>