<svg xmlns="http://www.w3.org/2000/svg" viewBox="0 0 201.63 27.5"><title>Fichier 13</title><g id="Calque_2" data-name="Calque 2"><g id="OBJECTS"><path d="M101,16.27a8.61,8.61,0,0,1-.63.92,12.3,12.3,0,0,1-3.17,2.87,14.41,14.41,0,0,1-6.33,2.13,14.28,14.28,0,0,1-5.4-.6A16,16,0,0,0,89,16.28a13.83,13.83,0,0,0,1-4.31,12.72,12.72,0,0,0-.54-4.34A10.59,10.59,0,0,0,83.69.92a10.16,10.16,0,0,0-8.75.14,8,8,0,0,0-3.18,3A8.23,8.23,0,0,0,70.64,8a12.55,12.55,0,0,0,1.78,6.72,18.24,18.24,0,0,0,4,4.77,22.06,22.06,0,0,0,1.87,1.39,18.78,18.78,0,0,1-10.58,1.81A29,29,0,0,1,61.2,21.2a26.48,26.48,0,0,1-5.78-2.69,16.26,16.26,0,0,1-4.28-3.84,44.5,44.5,0,0,1-3-5,25.65,25.65,0,0,0-3.5-5.09,11.79,11.79,0,0,0-2.49-2,10.44,10.44,0,0,0-3-1.21,9,9,0,0,0-6,.77,6.84,6.84,0,0,0-3.47,4,6.34,6.34,0,0,0,.19,4.44,5.24,5.24,0,0,0,2.68,2.74,5.44,5.44,0,0,0,5-.15c1-.62,1.17-1.22,1.06-1.3s-.58.2-1.47.41a4.7,4.7,0,0,1-3.62-.6,3.29,3.29,0,0,1-1.38-1.88A4.16,4.16,0,0,1,32.34,7a4,4,0,0,1,2.24-2.15,5.66,5.66,0,0,1,3.67-.2,7,7,0,0,1,1.82.87A8.11,8.11,0,0,1,41.68,7a23,23,0,0,1,2.73,4.49c.28.54.56,1.11.85,1.68a7,7,0,0,1-.58.82A12.57,12.57,0,0,1,39,18a14.05,14.05,0,0,1-4.56.84,14.94,14.94,0,0,1-5.11-.86,19.67,19.67,0,0,1-5.11-2.66,22.58,22.58,0,0,1-2.37-1.94c-.76-.71-1.45-1.45-2.22-2.32A31.83,31.83,0,0,0,14.4,5.79a9.6,9.6,0,0,0-8.26-1.7,8.85,8.85,0,0,0-5.55,5A7,7,0,0,0,1,15.5,7.73,7.73,0,0,0,5,18.67,7.47,7.47,0,0,0,8.78,19c2.07-.38,2.77-1.39,2.6-1.61s-1.15,0-2.66-.26a6.85,6.85,0,0,1-2.5-.92,7.06,7.06,0,0,1-1.23-1,5.26,5.26,0,0,1-.87-1.33,3.66,3.66,0,0,1,.27-3.21,4.8,4.8,0,0,1,3-2.36,1.43,1.43,0,0,1,.46-.07,1.7,1.7,0,0,1,.45,0,4.34,4.34,0,0,1,1,.17,6.14,6.14,0,0,1,2.09,1.1,33.14,33.14,0,0,1,4.41,4.58,23.17,23.17,0,0,0,12.36,7.72,17.16,17.16,0,0,0,6.63.22,15.28,15.28,0,0,0,5.33-2,12.42,12.42,0,0,0,5.19-5.72l.23-.57a27.39,27.39,0,0,0,1.95,3.28,20.21,20.21,0,0,0,5.27,5.07,29.93,29.93,0,0,0,6.75,3.35,33.3,33.3,0,0,0,7.67,1.81,25.32,25.32,0,0,0,8.38-.4,20.31,20.31,0,0,0,7.94-3.65,16.09,16.09,0,0,0,7.54.41,15,15,0,0,0,6.56-3,12.13,12.13,0,0,0,2.88-3.36,7.54,7.54,0,0,0,.5-1l.16-.35ZM75.47,13.18a9.53,9.53,0,0,1-1-5,4.29,4.29,0,0,1,2.41-3.55,5.82,5.82,0,0,1,4.82.19,6.25,6.25,0,0,1,3.08,4c1,3.57-.69,7.67-4,10.37a19.49,19.49,0,0,1-2.23-1.88A15.39,15.39,0,0,1,75.47,13.18Z"/><path d="M100.44,15.94l.15.35a7.89,7.89,0,0,0,.51,1A12.06,12.06,0,0,0,104,20.66a15,15,0,0,0,6.57,3,16.1,16.1,0,0,0,7.54-.41A20.26,20.26,0,0,0,126,26.93a25.33,25.33,0,0,0,8.38.4,33.26,33.26,0,0,0,7.68-1.81,30.14,30.14,0,0,0,6.75-3.35,20.21,20.21,0,0,0,5.27-5.07A28.78,28.78,0,0,0,156,13.82c.07.18.14.37.23.57a12.42,12.42,0,0,0,5.19,5.72,15.3,15.3,0,0,0,5.32,2,17.2,17.2,0,0,0,6.64-.22,23.17,23.17,0,0,0,12.36-7.72,33.14,33.14,0,0,1,4.41-4.58,6.14,6.14,0,0,1,2.09-1.1,4.18,4.18,0,0,1,1-.17,1.7,1.7,0,0,1,.45,0,1.47,1.47,0,0,1,.46.07,4.83,4.83,0,0,1,3,2.36,3.65,3.65,0,0,1,.26,3.21,4.77,4.77,0,0,1-.87,1.33,6.64,6.64,0,0,1-1.22,1,6.92,6.92,0,0,1-2.5.92c-1.52.25-2.48-.06-2.66.26s.52,1.23,2.6,1.61a7.47,7.47,0,0,0,3.75-.36,7.73,7.73,0,0,0,4.05-3.17A7,7,0,0,0,201,9.1a8.85,8.85,0,0,0-5.56-5,9.6,9.6,0,0,0-8.26,1.7A32.62,32.62,0,0,0,182,11a31,31,0,0,1-2.21,2.32,22.69,22.69,0,0,1-2.38,1.94,19.61,19.61,0,0,1-5.1,2.66,15,15,0,0,1-5.12.86,14,14,0,0,1-4.55-.84A12.51,12.51,0,0,1,157,14a7.16,7.16,0,0,1-.59-.82l.86-1.68A23,23,0,0,1,159.94,7a8.11,8.11,0,0,1,1.61-1.51,7.21,7.21,0,0,1,1.82-.87,5.68,5.68,0,0,1,3.68.2A4,4,0,0,1,169.29,7a4.16,4.16,0,0,1,.21,2.78,3.21,3.21,0,0,1-1.38,1.88,4.67,4.67,0,0,1-3.61.6c-.89-.21-1.33-.55-1.47-.41s.07.68,1.05,1.3a5.46,5.46,0,0,0,5,.15,5.24,5.24,0,0,0,2.68-2.74,6.4,6.4,0,0,0,.19-4.44,6.84,6.84,0,0,0-3.47-4,9,9,0,0,0-5.95-.77,10.33,10.33,0,0,0-3,1.21A12.1,12.1,0,0,0,157,4.6a26,26,0,0,0-3.49,5.09,43.1,43.1,0,0,1-3,5,16.06,16.06,0,0,1-4.27,3.84,26.7,26.7,0,0,1-5.78,2.69,29,29,0,0,1-6.56,1.44,18.75,18.75,0,0,1-10.58-1.81c.63-.43,1.26-.88,1.87-1.39a18.43,18.43,0,0,0,4.05-4.77A12.74,12.74,0,0,0,131,8a8.34,8.34,0,0,0-1.12-3.86,8,8,0,0,0-3.18-3,10.18,10.18,0,0,0-8.76-.14,10.61,10.61,0,0,0-5.7,6.71,12.72,12.72,0,0,0-.54,4.34,13.83,13.83,0,0,0,1,4.31,16.15,16.15,0,0,0,3.52,5.31,14.26,14.26,0,0,1-5.4.6,14.41,14.41,0,0,1-6.33-2.13,12.22,12.22,0,0,1-3.16-2.87,11.09,11.09,0,0,1-.64-.92Zm22.67,1.43a18.75,18.75,0,0,1-2.24,1.88c-3.34-2.7-5.08-6.8-4-10.37a6.22,6.22,0,0,1,3.08-4,5.82,5.82,0,0,1,4.82-.19,4.29,4.29,0,0,1,2.41,3.55,9.54,9.54,0,0,1-1,5A15.35,15.35,0,0,1,123.11,17.37Z"/><path d="M104.51,17a3.79,3.79,0,1,1-3.79-3.64A3.72,3.72,0,0,1,104.51,17Z"/></g></g></svg>