<svg xmlns="http://www.w3.org/2000/svg" viewBox="0 0 183.39 12.86"><defs><style>.cls-1{fill:#1b1527;}</style></defs><title>Fichier 3</title><g id="Calque_2" data-name="Calque 2"><g id="OBJECTS"><path class="cls-1" d="M7.63,2.05a19.81,19.81,0,0,1,3.54,4.1,39.55,39.55,0,0,0,5.62,6.71A53.92,53.92,0,0,0,7.87,8.51,28,28,0,0,1,2.92,6.07c-.28-.17-.56-.36-.83-.56C0,3.88-.64,1.68.74.59S5,0,7.08,1.58A6.44,6.44,0,0,1,7.63,2.05Z"/><path class="cls-1" d="M25.76,2.05a19.81,19.81,0,0,1,3.54,4.1,39.55,39.55,0,0,0,5.62,6.71A53.92,53.92,0,0,0,26,8.51a27.59,27.59,0,0,1-4.95-2.44,8,8,0,0,1-.83-.56C18.09,3.88,17.49,1.68,18.87.59s4.21-.64,6.34,1A6.44,6.44,0,0,1,25.76,2.05Z"/><path class="cls-1" d="M43.89,2.05a19.81,19.81,0,0,1,3.54,4.1A40,40,0,0,0,53,12.86a53.37,53.37,0,0,0-8.91-4.35,27.59,27.59,0,0,1-5-2.44,9.43,9.43,0,0,1-.84-.56C36.22,3.88,35.62,1.68,37,.59s4.22-.64,6.35,1C43.53,1.73,43.71,1.89,43.89,2.05Z"/><path class="cls-1" d="M62,2.05a19.51,19.51,0,0,1,3.54,4.1,40,40,0,0,0,5.62,6.71,53.77,53.77,0,0,0-8.91-4.35,27.24,27.24,0,0,1-4.95-2.44,9.43,9.43,0,0,1-.84-.56C54.35,3.88,53.74,1.68,55.12.59s4.22-.64,6.34,1A6.44,6.44,0,0,1,62,2.05Z"/><path class="cls-1" d="M80.14,2.05a19.81,19.81,0,0,1,3.54,4.1,39.55,39.55,0,0,0,5.62,6.71,53.92,53.92,0,0,0-8.92-4.35,28,28,0,0,1-4.95-2.44c-.28-.17-.56-.36-.83-.56C72.48,3.88,71.87,1.68,73.25.59s4.22-.64,6.34,1A6.44,6.44,0,0,1,80.14,2.05Z"/><path class="cls-1" d="M175.76,2.05a19.81,19.81,0,0,0-3.54,4.1,39.55,39.55,0,0,1-5.62,6.71,53.92,53.92,0,0,1,8.92-4.35,28,28,0,0,0,4.95-2.44c.28-.17.56-.36.83-.56,2.13-1.63,2.73-3.83,1.35-4.92s-4.22-.64-6.34,1A6.44,6.44,0,0,0,175.76,2.05Z"/><path class="cls-1" d="M157.63,2.05a19.81,19.81,0,0,0-3.54,4.1,39.55,39.55,0,0,1-5.62,6.71,53.92,53.92,0,0,1,8.92-4.35,27.59,27.59,0,0,0,5-2.44,9.43,9.43,0,0,0,.84-.56c2.12-1.63,2.72-3.83,1.34-4.92s-4.21-.64-6.34,1C158,1.73,157.8,1.89,157.63,2.05Z"/><path class="cls-1" d="M139.51,2.05A19.22,19.22,0,0,0,136,6.15a40.5,40.5,0,0,1-5.62,6.71,53.37,53.37,0,0,1,8.91-4.35,27.59,27.59,0,0,0,5-2.44,9.43,9.43,0,0,0,.84-.56c2.12-1.63,2.72-3.83,1.35-4.92s-4.22-.64-6.34,1A6.44,6.44,0,0,0,139.51,2.05Z"/><path class="cls-1" d="M121.38,2.05a19.81,19.81,0,0,0-3.54,4.1,40,40,0,0,1-5.62,6.71,53.53,53.53,0,0,1,8.92-4.35,27.41,27.41,0,0,0,4.94-2.44,9.43,9.43,0,0,0,.84-.56c2.12-1.63,2.73-3.83,1.35-4.92s-4.22-.64-6.34,1A6.44,6.44,0,0,0,121.38,2.05Z"/><path class="cls-1" d="M103.25,2.05a19.81,19.81,0,0,0-3.54,4.1,39.55,39.55,0,0,1-5.62,6.71A53.92,53.92,0,0,1,103,8.51,28,28,0,0,0,108,6.07c.28-.17.56-.36.83-.56,2.13-1.63,2.73-3.83,1.35-4.92s-4.22-.64-6.34,1A6.44,6.44,0,0,0,103.25,2.05Z"/></g></g></svg>