<svg xmlns="http://www.w3.org/2000/svg" viewBox="0 0 199.17 21.56"><title>Fichier 2</title><g id="Calque_2" data-name="Calque 2"><g id="OBJECTS"><path d="M51,11.45c-25.22,0-45.67-.45-45.67-1s20.45-1,45.67-1,45.66,1,45.66,1S76.22,11.45,51,11.45Z"/><path d="M79.71,3.77c1.91,2.51,3.15,5,2.52,5.83s-3-.47-5-3.16A11,11,0,0,1,75.32,2.3,12.11,12.11,0,0,1,75,.21a12.41,12.41,0,0,1,4.68,3.56Z"/><path d="M67.71,13.31c2.58-2.08,5.17-2.73,5.61-1.77s-1.27,3.1-3.69,5.06a10.6,10.6,0,0,1-3.56,1.83,9.69,9.69,0,0,1-1.78.39,11.11,11.11,0,0,1,.73-2A10.31,10.31,0,0,1,67.71,13.31Z"/><path d="M59,4.31c2.19,2.33,3.86,4.56,3.37,5.51s-3.18.06-5.64-2.55A10.67,10.67,0,0,1,54.4,3.11,11.11,11.11,0,0,1,54,1a14.5,14.5,0,0,1,1.71.83A14,14,0,0,1,59,4.31Z"/><path d="M47.08,15.42c3.58-2.73,6.59-5,7.26-4.16.32.4-.05,1.5-1,2.92a20.67,20.67,0,0,1-4.41,4.58,13.86,13.86,0,0,1-5.5,2.53,10.41,10.41,0,0,1-2.51.26s.67-.87,1.76-2.05A35.28,35.28,0,0,1,47.08,15.42Z"/><path d="M38.52,4.12C41,5.87,42.61,8.05,42.13,9s-2.89.29-5.36-1.46a11.48,11.48,0,0,1-3.61-4.87A8.7,8.7,0,0,1,38.52,4.12Z"/><path d="M25.25,14.47c2.92-2.52,5.53-4.36,6.21-3.58s-1,4.06-4.2,6.79a11.31,11.31,0,0,1-4.59,2.38,8.92,8.92,0,0,1-2.17.31,22,22,0,0,1,1.3-2A21.78,21.78,0,0,1,25.25,14.47Z"/><path d="M15.74,4.69c1.18,1.06,2.24,2,3,2.87s1.21,1.56,1,2.08-.94.71-2.09.46a9.42,9.42,0,0,1-4-2.25,9.6,9.6,0,0,1-2.61-4.28,9.52,9.52,0,0,1-.43-2.23s.73.35,1.71.93A20.78,20.78,0,0,1,15.74,4.69Z"/><path d="M4.65,6.65C6.41,7.76,7.28,9.6,6.73,10.49s-2.15.64-3.7-.34A5.16,5.16,0,0,1,1.34,8.06,10.59,10.59,0,0,1,.77,6.69,4.84,4.84,0,0,1,2,6.24,3.55,3.55,0,0,1,4.65,6.65Z"/><path d="M1.85,12.66c1.88-2.05,4-2.71,4.55-1.8s-.57,2.88-2.23,4.72a7.45,7.45,0,0,1-2.7,1.8A9.08,9.08,0,0,1,0,17.85a8.22,8.22,0,0,1,.21-1.8A7.39,7.39,0,0,1,1.85,12.66Z"/><path d="M148.16,9.25c25.22,0,45.66.44,45.66,1s-20.44,1-45.66,1-45.66-1-45.66-1S122.94,9.25,148.16,9.25Z"/><path d="M122,6.23c-2.06,2.69-4.44,4-5,3.16s.6-3.32,2.52-5.83a11.46,11.46,0,0,1,3.05-2.7A11.16,11.16,0,0,1,124.13,0a10.9,10.9,0,0,1-.29,2.09A10.85,10.85,0,0,1,122,6.23Z"/><path d="M129.53,16.39c-2.41-2-4.14-4.09-3.68-5.06s3-.31,5.61,1.77a10.15,10.15,0,0,1,2.68,3.55,10.76,10.76,0,0,1,.74,2,9.69,9.69,0,0,1-1.78-.39A10.54,10.54,0,0,1,129.53,16.39Z"/><path d="M142.45,7.06c-2.47,2.61-5.17,3.49-5.64,2.55S138,6.43,140.18,4.1a14,14,0,0,1,3.31-2.52A14.5,14.5,0,0,1,145.2.75a10.76,10.76,0,0,1-.44,2.15A10.51,10.51,0,0,1,142.45,7.06Z"/><path d="M150.23,18.55A20.67,20.67,0,0,1,145.82,14c-.95-1.41-1.31-2.52-1-2.92.67-.8,3.68,1.43,7.25,4.16a34.58,34.58,0,0,1,4.39,4.08c1.1,1.19,1.77,2.06,1.77,2.06a10.82,10.82,0,0,1-2.51-.27A13.86,13.86,0,0,1,150.23,18.55Z"/><path d="M162.4,7.32c-2.48,1.75-4.87,2.41-5.36,1.46s1.13-3.12,3.61-4.87A8.7,8.7,0,0,1,166,2.45,11.58,11.58,0,0,1,162.4,7.32Z"/><path d="M171.91,17.47c-3.17-2.73-4.86-6-4.2-6.79s3.29,1.06,6.21,3.58a21.78,21.78,0,0,1,3.45,3.88,22,22,0,0,1,1.3,2,8.92,8.92,0,0,1-2.17-.31A11.24,11.24,0,0,1,171.91,17.47Z"/><path d="M185.5,7.64a9.31,9.31,0,0,1-4,2.25c-1.15.25-1.93,0-2.1-.46s.29-1.24,1-2.07,1.83-1.82,3-2.88a21.18,21.18,0,0,1,3.39-2.42c1-.58,1.71-.93,1.71-.93a9.13,9.13,0,0,1-.42,2.23A9.6,9.6,0,0,1,185.5,7.64Z"/><path d="M196.14,9.94c-1.55,1-3.15,1.24-3.71.34s.33-2.73,2.09-3.84A3.55,3.55,0,0,1,197.14,6a4.63,4.63,0,0,1,1.26.46,10.59,10.59,0,0,1-.57,1.37A5.29,5.29,0,0,1,196.14,9.94Z"/><path d="M195,15.37c-1.66-1.83-2.76-3.81-2.23-4.72s2.67-.25,4.55,1.8A7.39,7.39,0,0,1,199,15.84a8.22,8.22,0,0,1,.21,1.8,9.08,9.08,0,0,1-1.47-.47A7.45,7.45,0,0,1,195,15.37Z"/><ellipse cx="99.75" cy="9.87" rx="1.99" ry="2.34"/></g></g></svg>