<svg xmlns="http://www.w3.org/2000/svg" viewBox="0 0 200.1 28.63"><title>Fichier 1</title><g id="Calque_2" data-name="Calque 2"><g id="OBJECTS"><path d="M158.3,22.11c-6.82-3.3-13.16-6.64-19.12-8.59a40.39,40.39,0,0,0-8.53-1.91,31.15,31.15,0,0,0-7.52.12,26.66,26.66,0,0,0-6.07,1.61,26.27,26.27,0,0,0-4.35,2.29c-.6.34-1.08.76-1.53,1.06s-.81.6-1.11.83c-.6.46-1,.65-1,.55s.15-.51.65-1.18a8.16,8.16,0,0,1,1-1.17,15,15,0,0,1,1.44-1.42,23.25,23.25,0,0,1,4.38-3.06A25.68,25.68,0,0,1,122.84,9a30.23,30.23,0,0,1,7.95-.63,38.33,38.33,0,0,1,9,1.64c6.26,1.84,12.77,5.16,19.52,8.41,3.37,1.62,6.66,3.12,9.89,4.3a48.72,48.72,0,0,0,9.4,2.48,28.69,28.69,0,0,0,8.61.11c.67-.1,1.33-.2,2-.36l1-.23.92-.28a13.35,13.35,0,0,0,3.35-1.49,10.41,10.41,0,0,0,4.4-5.12,8.86,8.86,0,0,0,.52-3.08,10.35,10.35,0,0,0-.45-2.69,20.58,20.58,0,0,0-1.45-3.45l-.61-1.16s.24.37.71,1a18.54,18.54,0,0,1,1.79,3.31,10.94,10.94,0,0,1,.71,2.87,10.31,10.31,0,0,1-.34,3.64,12.41,12.41,0,0,1-4.57,6.39,14.75,14.75,0,0,1-3.58,2l-1,.39-1,.33a17.69,17.69,0,0,1-2.08.57,28.59,28.59,0,0,1-9.13.54,43.76,43.76,0,0,1-9.92-2.15A87.21,87.21,0,0,1,158.3,22.11Z"/><path d="M98.77,10.13c0-5.55.52-10.09,1.35-10.13s1.65,4.48,1.68,10.1a33.65,33.65,0,0,1-.78,7.18,26.48,26.48,0,0,1-.8,2.95A38.55,38.55,0,0,1,98.77,10.13Z"/><path d="M106,15.19c-.84,2.38-2,4.08-2.82,3.7s-.83-2.81.06-5.36a6.63,6.63,0,0,1,1.87-2.75,5.36,5.36,0,0,1,1.18-.81,12.93,12.93,0,0,1,.16,1.73A10.1,10.1,0,0,1,106,15.19Z"/><path d="M114.27,8a19.56,19.56,0,0,0-4,4.39c-.8,1.27-1,2.43-1.47,2.49-.19,0-.43-.27-.57-.93a6.44,6.44,0,0,1,.13-2.81,10.71,10.71,0,0,1,1.58-3.46,16,16,0,0,1,2.7-3A12.2,12.2,0,0,1,118.4,1.8a9.92,9.92,0,0,1,1.89-.17c.46,0,.71,0,.71,0s-.81.81-2,2S116.08,6.39,114.27,8Z"/><path d="M40.76,18.37C47.5,15.12,54,11.8,60.27,10a38.51,38.51,0,0,1,9-1.64,30.27,30.27,0,0,1,8,.63,25.6,25.6,0,0,1,6.34,2.29A23.36,23.36,0,0,1,88,14.3a16.23,16.23,0,0,1,1.44,1.42,9.77,9.77,0,0,1,1,1.17c.5.67.72,1.07.65,1.18s-.42-.09-1-.55c-.3-.23-.66-.53-1.11-.83S88,16,87.39,15.63A26,26,0,0,0,83,13.34,26.52,26.52,0,0,0,77,11.73a31.06,31.06,0,0,0-7.51-.12,40.39,40.39,0,0,0-8.53,1.91c-6,2-12.3,5.29-19.12,8.59a87.34,87.34,0,0,1-10.19,4.23,43.68,43.68,0,0,1-9.91,2.15A28.66,28.66,0,0,1,12.56,28a17.53,17.53,0,0,1-2.07-.57l-1-.33-1-.39a14.88,14.88,0,0,1-3.57-2A12.49,12.49,0,0,1,.37,18.27,10.29,10.29,0,0,1,0,14.63a10.56,10.56,0,0,1,.71-2.87A17.91,17.91,0,0,1,2.54,8.45l.71-1L2.64,8.56A20.45,20.45,0,0,0,1.18,12,10.36,10.36,0,0,0,.74,14.7a8.64,8.64,0,0,0,.52,3.08A10.39,10.39,0,0,0,5.65,22.9,13.26,13.26,0,0,0,9,24.39l.92.28,1,.23c.64.16,1.3.26,2,.36a28.75,28.75,0,0,0,8.62-.11,48.72,48.72,0,0,0,9.4-2.48C34.09,21.49,37.38,20,40.76,18.37Z"/><path d="M96.85,13.53c.89,2.55.85,5,.06,5.36s-2-1.32-2.81-3.7a10.12,10.12,0,0,1-.46-3.49A12.93,12.93,0,0,1,93.8,10a5.54,5.54,0,0,1,1.19.81A6.53,6.53,0,0,1,96.85,13.53Z"/><path d="M87.51,4.67a16,16,0,0,1,2.7,3,10.93,10.93,0,0,1,1.58,3.46,6.6,6.6,0,0,1,.13,2.81c-.14.66-.38,1-.58.93-.44-.06-.67-1.22-1.47-2.49a19.48,19.48,0,0,0-4-4.39C84,6.39,82.38,4.82,81.14,3.65s-2-2-2-2,.25,0,.7,0a10.08,10.08,0,0,1,1.9.17A12.2,12.2,0,0,1,87.51,4.67Z"/></g></g></svg>