<svg xmlns="http://www.w3.org/2000/svg" viewBox="0 0 199.7 18.04"><defs><style>.cls-1{fill:#1b1527;}</style></defs><title>Fichier 7</title><g id="Calque_2" data-name="Calque 2"><g id="OBJECTS"><path class="cls-1" d="M64.76,7.16c-2.67.07-6.66.4-11.81.94s-11.4,1.36-18.62,2.6c-2.19.38-4.39.81-6.63,1.26a37.64,37.64,0,0,1-6.94.87,15,15,0,0,1-6.92-1.42A9.15,9.15,0,0,1,11,9.29a5.7,5.7,0,0,1-1-1.56,3.74,3.74,0,0,1-.12-1.87,3.54,3.54,0,0,1,.79-1.67,2.16,2.16,0,0,1,1.72-.79,2.26,2.26,0,0,1,1.68.79A2,2,0,0,1,14.35,6a5.21,5.21,0,0,1-1.78,2.66,21.13,21.13,0,0,1-2.51,1.64A26.82,26.82,0,0,1,0,13.5,25.45,25.45,0,0,0,9.93,10a21,21,0,0,0,2.42-1.73,4.62,4.62,0,0,0,1.47-2.51,1.34,1.34,0,0,0-.34-1.24,1.59,1.59,0,0,0-1.24-.39,2.13,2.13,0,0,0-1.53,2.1A2.6,2.6,0,0,0,11,7.6a5.08,5.08,0,0,0,1,1.18,8.08,8.08,0,0,0,2.73,1.65,14.14,14.14,0,0,0,6.54.73,42.13,42.13,0,0,0,6.7-1.42c2.24-.62,4.5-1.22,6.74-1.78,6.2-1.54,11.76-2.6,16.51-3.36s8.67-1.22,11.73-1.43A54.6,54.6,0,0,1,68.54,3a32.33,32.33,0,0,1,10.84,2A20.43,20.43,0,0,1,87,10.18a12,12,0,0,1,3,5.49c.27,1.48.06,2.32-.19,2.37s-.63-.63-1.29-1.71a15.78,15.78,0,0,0-3.43-3.92,21.82,21.82,0,0,0-6.83-3.68,34.6,34.6,0,0,0-9.62-1.55C67.35,7.13,66.05,7.13,64.76,7.16Z"/><path class="cls-1" d="M101.35,4.69a23.41,23.41,0,0,1-.73,4.72A48.57,48.57,0,0,0,99.34,17,46.77,46.77,0,0,0,98,9.27a24.35,24.35,0,0,1-.72-4.33,7.55,7.55,0,0,1,0-.83c0-2.26.93-4.1,2.07-4.11s2.07,1.81,2.08,4.07C101.38,4.28,101.37,4.48,101.35,4.69Z"/><path class="cls-1" d="M93.88,6.87a18,18,0,0,1,1.45,3.87A36.78,36.78,0,0,0,97.61,17,35.59,35.59,0,0,0,93,12a18.69,18.69,0,0,1-2.54-2.83c-.14-.19-.27-.38-.4-.59-1-1.67-1-3.5,0-4.1s2.58.27,3.58,1.94Z"/><path class="cls-1" d="M57.65,10.52A29.69,29.69,0,0,1,62,9.29a25.38,25.38,0,0,1,7.11-.46,25.9,25.9,0,0,1,9.59,2.65A15.08,15.08,0,0,1,84.81,17a12.9,12.9,0,0,0-6.55-4.73,20.33,20.33,0,0,0-9.42-.8,40.41,40.41,0,0,0-9.19,2.67l-1.71.72c-4.61,2-8.68,3.52-9.31,2.52s2.53-4.1,7.61-6.3C56.71,10.86,57.19,10.69,57.65,10.52Z"/><path class="cls-1" d="M135.08,2.58A117.22,117.22,0,0,1,147.22,3.9c5.19.77,11.51,1.94,18.69,3.75,2.17.55,4.38,1.15,6.56,1.74A34.23,34.23,0,0,0,179,10.66a13.33,13.33,0,0,0,6.31-.9,8,8,0,0,0,2.59-1.7,5.08,5.08,0,0,0,.85-1.17,2.71,2.71,0,0,0,.15-1.36c-.12-.92-.74-1.86-1.59-1.84a1.54,1.54,0,0,0-1.13.45A1.42,1.42,0,0,0,186,5.35a4.69,4.69,0,0,0,1.49,2.41,21.45,21.45,0,0,0,2.38,1.69,25.54,25.54,0,0,0,9.87,3.49A26.82,26.82,0,0,1,189.64,9.7,21.54,21.54,0,0,1,187.11,8a5.06,5.06,0,0,1-1.73-2.7,1.9,1.9,0,0,1,.42-1.73A2.19,2.19,0,0,1,187.52,3a2.26,2.26,0,0,1,1.61,1,3.58,3.58,0,0,1,.67,1.72,3.41,3.41,0,0,1-.29,1.87A6.22,6.22,0,0,1,188.44,9a9.53,9.53,0,0,1-3,2,15.67,15.67,0,0,1-7.1,1.23,43.16,43.16,0,0,1-7.07-1c-2.29-.45-4.55-.88-6.8-1.26C158.26,9,152.73,8.26,148,7.74s-8.59-.87-11.48-1c-1.72-.07-3.48-.1-5.27-.05a35.79,35.79,0,0,0-9.66,1.49,21.37,21.37,0,0,0-6.91,3.65,15.67,15.67,0,0,0-3.53,3.94c-.67,1.1-1,1.82-1.31,1.79-.15,0-.25-.21-.31-.59a5.27,5.27,0,0,1,.08-1.67,11.8,11.8,0,0,1,2.89-5.45,20.54,20.54,0,0,1,7.53-5.17,31.84,31.84,0,0,1,10.81-2.12C132.32,2.5,133.72,2.52,135.08,2.58Z"/><path class="cls-1" d="M109.33,8.48a17.71,17.71,0,0,1-2.72,3.11,36.52,36.52,0,0,0-4.46,5,36.81,36.81,0,0,0,2.28-6.43,18,18,0,0,1,1.29-3.57,4.87,4.87,0,0,1,.33-.64c1-1.67,2.6-2.55,3.58-2s1,2.4,0,4.07A4.78,4.78,0,0,1,109.33,8.48Z"/><path class="cls-1" d="M140.56,13.85c-.87-.35-2.14-.87-3.81-1.42a34.62,34.62,0,0,0-6.2-1.47,20.43,20.43,0,0,0-9.18.89A12.8,12.8,0,0,0,115,16.53,15.32,15.32,0,0,1,121.1,11a25.84,25.84,0,0,1,9.83-2.65,27.25,27.25,0,0,1,10.52,1.47c.63.2,1.27.44,1.91.71a22.64,22.64,0,0,1,6,3.63c1.36,1.19,2,2.19,1.74,2.69-.59,1-4.62-.49-9.24-2.47Z"/></g></g></svg>