<svg xmlns="http://www.w3.org/2000/svg" viewBox="0 0 198.17 40.83"><defs><style>.cls-1{fill:#262132;}</style></defs><title>Fichier 12</title><g id="Calque_2" data-name="Calque 2"><g id="OBJECTS"><path class="cls-1" d="M25.89,2.9a12.33,12.33,0,0,1,2.5,2.21A14.35,14.35,0,0,1,31,9.5c1.64,4.42,2.44,8.83,3.34,11.52a23.85,23.85,0,0,0-3.05-4.26,17.57,17.57,0,0,0-4.68-3.82c-2.35-1.24-3.87-1.81-4.76-2.23a6.26,6.26,0,0,1-.8-.35,6.76,6.76,0,0,1-2.45-2.18,6.09,6.09,0,0,1-1.26-3.29,3.22,3.22,0,0,1,2.15-3,6.63,6.63,0,0,1,5.43.42A8.14,8.14,0,0,1,25.89,2.9Z"/><path class="cls-1" d="M8.79,10.29a7.6,7.6,0,0,0,1,2.7,13.41,13.41,0,0,0,4.15,4.22c2.65,1.77,6.34,2.69,9.77,3.32s6.67,1.12,9.16,1.39c-2.49,0-5.76.18-9.34.5s-7.59.79-11.82,0a15.36,15.36,0,0,1-7.41-3.68A13,13,0,0,1,.66,13.25,11,11,0,0,1,.2,11.68,12.21,12.21,0,0,1,0,9.86,10.69,10.69,0,0,1,1.78,3.68a8.67,8.67,0,0,1,4-3.29A4.8,4.8,0,0,1,9.25.28a1.88,1.88,0,0,1,1.24,1.56,4.17,4.17,0,0,1-.43,1.84,19.62,19.62,0,0,0-.67,1.85c-.18.63-.33,1.29-.46,2a11.63,11.63,0,0,0-.17,2.07,1.76,1.76,0,0,0,0,.33v.16Z"/><path class="cls-1" d="M16.11,32.53A11,11,0,0,1,18,29.67a11.5,11.5,0,0,1,4.32-3A18.34,18.34,0,0,1,29,25.4a19.73,19.73,0,0,1,5.1.68,8.8,8.8,0,0,0-4.73,1.18,8.93,8.93,0,0,0-3.72,4,18.94,18.94,0,0,0-1,2.74c-.21.74-.36,1.32-.48,1.75a5.58,5.58,0,0,1-.2.78,6.65,6.65,0,0,1-1.77,2.68,5.52,5.52,0,0,1-3,1.64A3.17,3.17,0,0,1,16,39a6.78,6.78,0,0,1-.34-5.42A7.46,7.46,0,0,1,16.11,32.53Z"/><path class="cls-1" d="M172.28,2.9a12.33,12.33,0,0,0-2.5,2.21,14,14,0,0,0-2.59,4.39c-1.65,4.42-2.44,8.83-3.35,11.52a24,24,0,0,1,3.06-4.26,17.57,17.57,0,0,1,4.68-3.82c2.35-1.24,3.87-1.81,4.76-2.23a6.26,6.26,0,0,0,.8-.35,6.73,6.73,0,0,0,2.44-2.18,6.11,6.11,0,0,0,1.27-3.29,3.22,3.22,0,0,0-2.16-3,6.63,6.63,0,0,0-5.43.42A8,8,0,0,0,172.28,2.9Z"/><path class="cls-1" d="M189.37,10.29a7.4,7.4,0,0,1-1,2.7,13.25,13.25,0,0,1-4.14,4.22c-2.65,1.77-6.34,2.69-9.78,3.32s-6.66,1.12-9.15,1.39c2.49,0,5.76.18,9.34.5s7.59.79,11.82,0a15.33,15.33,0,0,0,7.4-3.68,13.08,13.08,0,0,0,3.64-5.48,11,11,0,0,0,.45-1.57,11,11,0,0,0,.2-1.82,10.61,10.61,0,0,0-1.77-6.18,8.64,8.64,0,0,0-4-3.29,4.78,4.78,0,0,0-3.5-.11,1.88,1.88,0,0,0-1.25,1.56,4,4,0,0,0,.44,1.84,19.62,19.62,0,0,1,.67,1.85c.18.63.33,1.29.46,2a11.63,11.63,0,0,1,.17,2.07c0,.12,0,.23,0,.33v.16Z"/><path class="cls-1" d="M182.06,32.53a11.67,11.67,0,0,0-6.21-5.87,18.38,18.38,0,0,0-6.63-1.26,19.66,19.66,0,0,0-5.1.68,9.13,9.13,0,0,1,8.44,5.14,19.16,19.16,0,0,1,1,2.74c.2.74.36,1.32.47,1.75a5.64,5.64,0,0,0,.21.78A6.65,6.65,0,0,0,176,39.17a5.52,5.52,0,0,0,3,1.64A3.17,3.17,0,0,0,182.18,39a6.78,6.78,0,0,0,.33-5.42A6.46,6.46,0,0,0,182.06,32.53Z"/><path class="cls-1" d="M159.61,23c-.66,0-1.21.37-1.21.82s.55.81,1.21.81,1.21-.36,1.21-.81S160.28,23,159.61,23Z"/><path class="cls-1" d="M156.55,22.69c-.9,0-1.62.49-1.62,1.09s.72,1.08,1.62,1.08,1.61-.48,1.61-1.08S157.44,22.69,156.55,22.69Z"/><path class="cls-1" d="M152.45,22.33c-1.19,0-2.15.65-2.15,1.45s1,1.44,2.15,1.44,2.15-.64,2.15-1.44S153.64,22.33,152.45,22.33Z"/><path class="cls-1" d="M147,21.85c-1.59,0-2.87.86-2.87,1.93s1.28,1.93,2.87,1.93,2.87-.87,2.87-1.93S148.58,21.85,147,21.85Z"/><path class="cls-1" d="M139.72,21.2c-2.11,0-3.82,1.16-3.82,2.58s1.71,2.57,3.82,2.57,3.83-1.15,3.83-2.57S141.83,21.2,139.72,21.2Z"/><path class="cls-1" d="M130,20.34c-2.82,0-5.1,1.54-5.1,3.44s2.28,3.43,5.1,3.43,5.1-1.54,5.1-3.43S132.84,20.34,130,20.34Z"/><path class="cls-1" d="M117.09,19.2c-3.76,0-6.8,2.05-6.8,4.58s3,4.57,6.8,4.57,6.8-2.05,6.8-4.57S120.84,19.2,117.09,19.2Z"/><ellipse class="cls-1" cx="99.84" cy="23.78" rx="9.07" ry="6.1"/><path class="cls-1" d="M40.25,22.76c-.67,0-1.21.37-1.21.82s.54.81,1.21.81,1.21-.36,1.21-.81S40.92,22.76,40.25,22.76Z"/><path class="cls-1" d="M43.32,22.49c-.89,0-1.61.49-1.61,1.09s.72,1.08,1.61,1.08,1.61-.48,1.61-1.08S44.21,22.49,43.32,22.49Z"/><ellipse class="cls-1" cx="47.41" cy="23.58" rx="2.15" ry="1.45"/><path class="cls-1" d="M52.87,21.65c-1.59,0-2.87.86-2.87,1.93s1.28,1.93,2.87,1.93,2.87-.87,2.87-1.93S54.45,21.65,52.87,21.65Z"/><path class="cls-1" d="M60.14,21c-2.11,0-3.82,1.16-3.82,2.58s1.71,2.57,3.82,2.57S64,25,64,23.58,62.26,21,60.14,21Z"/><path class="cls-1" d="M69.84,20.14c-2.81,0-5.1,1.54-5.1,3.44S67,27,69.84,27,75,25.47,75,23.58,72.66,20.14,69.84,20.14Z"/><path class="cls-1" d="M82.78,19C79,19,76,21.05,76,23.58s3,4.57,6.8,4.57,6.8-2,6.8-4.57S86.53,19,82.78,19Z"/></g></g></svg>