<svg xmlns="http://www.w3.org/2000/svg" viewBox="0 0 201.33 37.25"><title>Fichier 11</title><g id="Calque_2" data-name="Calque 2"><g id="OBJECTS"><path d="M22.34,31.63A39.69,39.69,0,0,0,40.79,31,61.65,61.65,0,0,0,56.73,24a144.44,144.44,0,0,0,13-9.14,37.75,37.75,0,0,1,6.43-4.37A13.88,13.88,0,0,1,84.3,9,15.29,15.29,0,0,1,91,11.68,14.5,14.5,0,0,1,95.06,16a15.7,15.7,0,0,1,2.17,8.31,19.12,19.12,0,0,1-.73,5.18c-.34,1.15-.66,1.73-.84,1.7s-.25-.66-.26-1.81a40.69,40.69,0,0,0-.32-5,15.6,15.6,0,0,0-2.7-7.07,12.38,12.38,0,0,0-3.51-3.19,11.66,11.66,0,0,0-5.08-1.71,9.32,9.32,0,0,0-5.47,1.23,35.9,35.9,0,0,0-5.49,4.11,132.49,132.49,0,0,1-13.14,9.81,64.37,64.37,0,0,1-17.27,8,45.18,45.18,0,0,1-21.4.77,33.65,33.65,0,0,1-10.21-3.94,24.08,24.08,0,0,1-7.57-7A18.52,18.52,0,0,1,0,16.51,14.52,14.52,0,0,1,2.2,7.62a16.66,16.66,0,0,1,7.06-6,16.07,16.07,0,0,1,17,1.92,17,17,0,0,1,4.53,5.39,12.41,12.41,0,0,1,1.6,5.91,6.57,6.57,0,0,1-.7,2.88,6,6,0,0,1-2,2.2A8.38,8.38,0,0,1,24.32,21a7.54,7.54,0,0,1-4.06-1.66,7.37,7.37,0,0,1-2.66-4.6,7.1,7.1,0,0,1-.08-1.34l0-.45s0,.16,0,.45a6.63,6.63,0,0,0,.26,1.3,7.3,7.3,0,0,0,3,4.07,6.92,6.92,0,0,0,7.7-.12,4.25,4.25,0,0,0,1.57-3.86A10.8,10.8,0,0,0,28.27,10a15,15,0,0,0-4.18-4.29A12.89,12.89,0,0,0,18,3.43,12.59,12.59,0,0,0,6.32,9.52C4.05,13.44,4.72,18.8,7.77,23S16.19,30.34,22.34,31.63Z"/><path d="M179,31.63A39.68,39.68,0,0,1,160.55,31,61.35,61.35,0,0,1,144.61,24a143,143,0,0,1-13-9.14,38.56,38.56,0,0,0-6.43-4.37A13.93,13.93,0,0,0,117,9a15.34,15.34,0,0,0-6.69,2.65A14.5,14.5,0,0,0,106.27,16a15.89,15.89,0,0,0-2.17,8.31,19.12,19.12,0,0,0,.73,5.18c.35,1.15.66,1.73.84,1.7s.25-.66.27-1.81a38.37,38.37,0,0,1,.31-5,15.72,15.72,0,0,1,2.7-7.07,12.43,12.43,0,0,1,3.52-3.19,11.62,11.62,0,0,1,5.07-1.71A9.32,9.32,0,0,1,123,13.64a36.44,36.44,0,0,1,5.5,4.11,132.3,132.3,0,0,0,13.13,9.81,64.44,64.44,0,0,0,17.28,8,45.17,45.17,0,0,0,21.4.77,33.85,33.85,0,0,0,10.21-3.94,24.15,24.15,0,0,0,7.56-7,18.32,18.32,0,0,0,3.2-8.89,14.51,14.51,0,0,0-2.15-8.89,16.74,16.74,0,0,0-7.07-6A16,16,0,0,0,175.13,3.5a16.85,16.85,0,0,0-4.54,5.39A12.41,12.41,0,0,0,169,14.8a6.57,6.57,0,0,0,.7,2.88,6,6,0,0,0,2,2.2A8.36,8.36,0,0,0,177,21a7.54,7.54,0,0,0,4.06-1.66,7.39,7.39,0,0,0,2.65-4.6,7.1,7.1,0,0,0,.08-1.34l0-.45,0,.45a7.26,7.26,0,0,1-.25,1.3,7.35,7.35,0,0,1-3,4.07,6.93,6.93,0,0,1-7.71-.12,4.27,4.27,0,0,1-1.57-3.86A10.92,10.92,0,0,1,173.06,10a15,15,0,0,1,4.18-4.29,12.92,12.92,0,0,1,6.11-2.25A12.6,12.6,0,0,1,195,9.52c2.27,3.92,1.59,9.28-1.46,13.5S185.14,30.34,179,31.63Z"/><path d="M91.9,30.49s-3.19-16.16-8.58-13.87S90.22,29.68,91.9,30.49Z"/><path d="M108.67,31.22s14.21-9,10-12.95S108.81,29.4,108.67,31.22Z"/><path d="M101.13,22.66S106.87,7.18,101,6.48,100.12,21.13,101.13,22.66Z"/></g></g></svg>