<?xml version="1.0" encoding="UTF-8" standalone="no" ?>
<!DOCTYPE svg PUBLIC "-//W3C//DTD SVG 1.1//EN" "http://www.w3.org/Graphics/SVG/1.1/DTD/svg11.dtd">
<svg xmlns="http://www.w3.org/2000/svg" xmlns:xlink="http://www.w3.org/1999/xlink" version="1.1" width="61.70426301896953" height="17.825057975167624" viewBox="153.77321324327505 241.0874710124162 61.70426301896953 17.825057975167624" xml:space="preserve">
<desc>Created with Fabric.js 4.6.0</desc>
<defs>
</defs>
<g transform="matrix(1 0 0 1 174.01 249.77)" id="uvYRaiViJRVqLt4B8ZPkM"  >
<path style="stroke: none; stroke-width: 1; stroke-dasharray: none; stroke-linecap: butt; stroke-dashoffset: 0; stroke-linejoin: miter; stroke-miterlimit: 4; fill: rgb(0,0,0); fill-rule: nonzero; opacity: 1;" vector-effect="non-scaling-stroke"  transform=" translate(-19.76, -8.18)" d="M 12.24 6.77 C 11.211407941018086 5.794215070951832 9.89709984652658 5.17386165035184 8.489999999999998 4.999999999999999 C 7.302212718611968 5.003581190525828 6.160824995269938 5.461567487039243 5.299999999999998 6.280000000000001 C 4.531994266814904 6.920455251364568 4.076620589985266 7.860346520340938 4.05 8.859999999999998 C 4.166398794892751 9.752613252397722 4.643455179572792 10.558549417425365 5.370000000000001 11.09 C 6.124428466015463 11.663745435623916 6.989119923955533 12.075665382122926 7.910000000000004 12.3 C 8.641599842877087 12.486042197181057 9.395385397475831 12.57017004925681 10.149999999999999 12.55 C 11.41 12.49 12.15 12.180000000000001 12.41 12.46 C 12.67 12.74 12.2 13.600000000000001 10.64 14.360000000000001 C 8.34763382908794 15.32052069197857 5.743114905571992 15.188087526376064 3.5599999999999987 14 C 2.7708618214457785 13.56186898378214 2.066439308570473 12.986139045374443 1.4799999999999973 12.3 C 0.7918601014281511 11.487375280518082 0.32056270021284217 10.513819334941934 0.10999999999999988 9.47 C -0.24540401796583533 7.178830129864162 0.49508930144543484 4.853681106912782 2.1100000000000025 3.1900000000000013 C 3.7727213178080863 1.377124933656878 6.1102898397093774 0.33137059491156506 8.570000000000002 0.2999999999999998 C 11.050686978777243 0.4012198386763861 13.420576055776955 1.3548264717463148 15.279999999999998 2.9999999999999973 C 17.03 4.43 18.28 5.9 19.52 7 C 20.769349621163773 8.107336618549208 22.107138952266894 9.110678616876545 23.51999999999999 9.99999999999999 C 25.933667266081514 11.578093686714606 28.560127324670017 12.803775047389237 31.319999999999993 13.639999999999997 C 33.237611858771196 14.233184473305968 35.217465493663966 14.60230972726903 37.219999999999985 14.740000000000002 C 37.77854437127819 14.78970398215635 38.33933290992156 14.809732144250754 38.900000000000006 14.799999999999999 L 39.49 14.8 L 38.93 14.99 C 38.38931802330113 15.180446888170046 37.83846842933814 15.340694042777455 37.28 15.469999999999997 C 35.192546000072966 15.969372327352778 33.04123971134703 16.148085859174838 30.9 16 C 27.655111196362764 15.775759404328717 24.482282169032857 14.937589597108946 21.550000000000004 13.530000000000001 C 19.77992292052417 12.713427399699162 18.103482684724668 11.707563258219455 16.550000000000004 10.529999999999996 C 14.91 9.3 13.57 7.84 12.24 6.77 Z" stroke-linecap="round" />
</g>
<g transform="matrix(1 0 0 1 195.44 250)" id="BHN1Onx4Fbnh-3dDdGnd2"  >
<path style="stroke: none; stroke-width: 1; stroke-dasharray: none; stroke-linecap: butt; stroke-dashoffset: 0; stroke-linejoin: miter; stroke-miterlimit: 4; fill: rgb(0,0,0); fill-rule: nonzero; opacity: 1;" vector-effect="non-scaling-stroke"  transform=" translate(-41.19, -8.41)" d="M 48.45 10.19 C 49.43255949052053 11.191469593918873 50.71319084172771 11.847573875222276 52.1 12.059999999999999 C 53.29185962842037 12.103472722169627 54.45502374988213 11.688312604970967 55.35 10.899999999999999 C 56.14228730379809 10.286981460784855 56.63963331378329 9.368524960593202 56.72 8.37 C 56.65314624909474 7.4770432666321005 56.21405899996129 6.653301071976793 55.51 6.099999999999998 C 54.77200964066544 5.498097739947229 53.917413236964826 5.055478088628186 53 4.799999999999999 C 52.27573868284632 4.586337602068059 51.52510161043562 4.475256779693381 50.77 4.469999999999999 C 49.510000000000005 4.47 48.77 4.76 48.510000000000005 4.47 C 48.25000000000001 4.18 48.77 3.3499999999999996 50.35000000000001 2.6399999999999997 C 52.68172368580952 1.778533629554477 55.278350600864364 2.0212777887522386 57.41000000000001 3.299999999999999 C 58.17979555249376 3.7579019679742265 58.857941084153964 4.354670035835212 59.41000000000001 5.060000000000004 C 60.08192583100481 5.913899160184454 60.52273567322919 6.9263842665435975 60.69 7.999999999999995 C 60.93293212587754 10.299581675157135 60.08989430333159 12.58096034406439 58.41 14.169999999999998 C 56.68799298295803 15.910172788185605 54.327693366989024 16.868027915646223 51.879999999999995 16.82 C 49.39003712081828 16.626359669084277 47.04710704208185 15.564608878116106 45.26 13.82 C 43.57 12.32 42.4 10.82 41.199999999999996 9.64 C 40.0161153075305 8.476939367826699 38.73846451268741 7.413345250653652 37.37999999999999 6.45999999999999 C 35.041861931687926 4.7799869038060825 32.47156777618835 3.4493627997139003 29.749999999999996 2.509999999999998 C 27.86210625307241 1.8395936715267798 25.902016998015498 1.3932034815908736 23.909999999999982 1.1799999999999988 C 23.189999999999998 1.0800000000000005 22.629999999999995 1.0800000000000005 22.239999999999995 1.0500000000000007 L 21.649999999999995 1.0500000000000007 L 22.209999999999994 0.8800000000000007 C 22.753210971491274 0.6868683391600365 23.307544889509593 0.5265790134679936 23.869999999999997 0.400000000000002 C 25.97347065220104 -0.01688520416764383 28.128126912817024 -0.11129893702719051 30.259999999999998 0.11999999999999533 C 33.49269062643363 0.4801536030266501 36.62611844163862 1.4578645572834583 39.489999999999995 2.9999999999999956 C 41.212601698975945 3.9045382639763346 42.82921349101366 4.9979313017445826 44.31000000000001 6.260000000000005 C 45.9 7.56 47.17 9.06 48.45 10.19 Z" stroke-linecap="round" />
</g>
</svg>